<svg width="18" height="18" viewBox="0 0 18 18" fill="none" xmlns="http://www.w3.org/2000/svg">
<g id="&#240;&#159;&#166;&#134; icon &#34;bell&#34;">
<path id="Vector" d="M14.3333 5.80085C14.3333 4.52759 13.7714 3.30647 12.7712 2.40614C11.771 1.5058 10.4145 1 9 1C7.58551 1 6.22896 1.5058 5.22876 2.40614C4.22857 3.30647 3.66667 4.52759 3.66667 5.80085C3.66667 11.4018 1 13.0021 1 13.0021H17C17 13.0021 14.3333 11.4018 14.3333 5.80085Z" stroke="#333333" stroke-width="1.5" stroke-linecap="round" stroke-linejoin="round"/>
<path id="Vector_2" d="M10.5377 16.2027C10.3814 16.4452 10.1571 16.6465 9.88725 16.7864C9.61737 16.9264 9.31138 17 8.99994 17C8.68849 17 8.3825 16.9264 8.11262 16.7864C7.84274 16.6465 7.61843 16.4452 7.46216 16.2027" stroke="#333333" stroke-width="1.5" stroke-linecap="round" stroke-linejoin="round"/>
</g>
</svg>
